<?xml version="1.0" ?><svg height="24px" version="1.1" viewBox="0 0 24 24" width="24px" xmlns="http://www.w3.org/2000/svg" xmlns:sketch="http://www.bohemiancoding.com/sketch/ns" xmlns:xlink="http://www.w3.org/1999/xlink"><title/><desc/><defs/><g fill="none" fill-rule="evenodd" id="miu" stroke="none" stroke-width="1"><g id="Artboard-1" transform="translate(-431.000000, -515.000000)"><g id="slice" transform="translate(215.000000, 119.000000)"/><path d="M440.319864,520 L438.474543,516.205343 C438.433899,516.091935 438.304938,516 438.182707,516 L433.218244,516 C433.097711,516 433,516.096579 433,516.218459 L433,516.683996 C433,516.804648 433.098184,516.902455 433.216144,516.902455 L437.600664,516.902455 C437.720037,516.902455 437.849158,516.993619 437.890909,517.111272 L439.292226,520 L435.997422,520 C434.890925,520 434.556044,520.702371 435.241959,521.56879 L443,531.368421 L443,537 L441,537 L441,538 L446,538 L446,537 L444,537 L444,531.368421 L451.758041,521.56879 C452.448177,520.697039 452.105724,520 451.002578,520 L440.319864,520 L440.319864,520 Z M450.899994,521 L436.100006,521 L443.499465,530.388248 L450.899994,521 Z" fill="#000000" id="food-drink-cocktail-wine-glass-outing-drink-outline-stroke"/></g></g></svg>